Genre:Horror | Mystery | Thriller
Language:English
IMDb:http://www.imdb.com/title/tt1477076/
Source:D.TS.ELEKTRI4KA/AUDIO:IMAGiNE
Sample:Yes


General:

Complete name :Saw 3D 2010 CAM Xvid Feel-Free
Format : AVI
Format/Info : Audio Video Interleave
File size : 589 MiB
Duration : 1h 24mn
Overall bit rate : 976 Kbps


Video:

Codec ID : XVID
Codec ID/Hint : XviD
Duration : 1h 24mn
Bit rate : 838 Kbps
Width : 652 pixels
Height : 352 pixels
Display aspect ratio : 1.852
Frame rate : 25.000 fps
Resolution : 24 bits
Colorimetry : 4:2:0
Scan type : Progressive
Bits/(Pixel*Frame) : 0.146
Stream size : 506 MiB (86%)
Writing library : XviD 1.2.1 (UTC 2008-12-04)


Audio:

ID : 1
Format : MPEG Audio
Format version : Version 1
Format profile : Layer 3
Codec ID : 55
Codec ID/Hint : MP3
Duration : 1h 24mn
Bit rate mode : Constant
Bit rate : 128 Kbps
Channel(s) : 2 channels
Sampling rate : 44.1 KHz
Resolution : 16 bits
Video delay : 2ms
Stream size : 77.3 MiB (13%)
Alignment : Split accross interleaves
Interleave, duration : 40 ms (1.00 video frame)
Interleave, preload duration : 500 ms 

Plot:
As a deadly battle rages over Jigsaw's brutal legacy, a group of Jigsaw survivors gathers to seek the support of self-help guru and fellow survivor Bobby Dagen, a man whose own dark secrets unleash a new wave of terror








================================== 
http://thepiratebay.org/user/hiest
==================================









Screens:
 
http://rapidhdd.com/images/915938vlcsnap-2010-11-08-04h15m52s120.png
 
http://www.rapidhdd.com/images/888419vlcsnap-2010-11-08-04h16m05s249.png
 
http://www.rapidhdd.com/images/875424vlcsnap-2010-11-08-04h16m53s181.png
 
http://www.rapidhdd.com/images/460418vlcsnap-2010-11-08-04h17m03s54.png
 
http://www.rapidhdd.com/images/587482vlcsnap-2010-11-08-04h17m35s118.png
 
http://www.rapidhdd.com/images/384620vlcsnap-2010-11-08-04h17m40s169.png
